<svg id="finger-wrap" class="finger" xmlns="http://www.w3.org/2000/svg" viewBox="0 0 368.5 368.5"><style>.st0{fill:none;stroke:#000;stroke-width:9;stroke-linecap:round;stroke-linejoin:round}</style><g id="f1"><path class="st0" d="M135.7 190.2c-9 0-16.2 7.3-16.2 16.2 0 9 7.3 16.2 16.2 16.2h18.4M180 222.7c9 0 16.2-7.3 16.2-16.2 0-9-7.3-16.2-16.2-16.2h-23.3M154.1 222.7c-9 0-16.2 7.3-16.2 16.2 0 9 7.3 16.2 16.2 16.2h44.3c9 0 16.2-7.3 16.2-16.2 0-9-7.3-16.2-16.2-16.2H180M180 222.7h-25.9M284.4 198.9c-9.3 0-37.3-6.5-52.5-26.9M327.9 242.8c0 7.7 6.3 14 14 14s14-6.3 14-14V131.7c0-7.7-6.3-14-14-14s-14 6.3-14 14v111.1zM178.4 125.3H28.9c-9 0-16.2 7.3-16.2 16.2 0 9 7.3 16.2 16.2 16.2H145M147.8 155.8c-.3.3-.7.7-1 1.1M177.2 126.5c-.4.4-.9.8-1.3 1.3M178.4 125.3c-.4.4-.9.8-1.3 1.2M146.1 157.8c.2-.3.5-.6.7-.9M156 186.1c.3.1.6.1.8.2M143 172.6c.1.2.1.5.2.7M154.1 185.5c.4.2.8.3 1.2.4M142.7 171.1c0 .2.1.4.1.6M142.6 169.6v.4M152.4 184.8c.4.2.8.4 1.3.6M143.4 174.2c.1.3.2.5.3.8M144.7 177.3c.2.3.3.6.5.8M144 175.7c.1.3.2.5.4.8M150.9 183.9l.9.6M149.5 182.9c.3.2.6.5.9.7M164.6 186.3c.1 0 .3-.1.4-.1M163.1 186.6c.2 0 .3 0 .5-.1M166.1 185.9c-.4.1-.7.2-1.1.3M161.7 186.7h.4M166.1 185.9c.1 0 .1 0 0 0M157.6 186.5c.3 0 .5.1.8.1M164.6 186.3c-.3.1-.7.1-1 .2M159.2 186.7h.6M159.2 186.7c-.3 0-.6-.1-.8-.1M157.6 186.5c-.3 0-.5-.1-.8-.1M168.8 184.8c-.8.4-1.7.8-2.6 1M161.7 186.7h-1.9M168.8 184.8c-3 3.3-7.3 5.4-12 5.4M163.1 186.6c-.3 0-.7.1-1 .1M144 175.7c-.1-.3-.2-.5-.3-.8M152.4 184.8c-.2-.1-.3-.2-.5-.3M143.4 174.2l-.3-.9M144.7 177.3c-.1-.2-.2-.5-.4-.7M145.6 178.7c-.1-.2-.3-.4-.4-.6M154.1 185.5c-.2-.1-.3-.1-.5-.2M143 172.6c-.1-.3-.1-.6-.2-1M142.5 168.3v1.3M150.9 183.9c-.2-.1-.3-.2-.5-.3"></path><path class="st0" d="M144.9 157.8h-32.5c-9 0-16.2 7.3-16.2 16.2 0 9 7.3 16.2 16.2 16.2h23.3M149.1 182.6c-.4-.4-.9-.7-1.3-1.1M142.7 171.1c0-.4-.1-.7-.1-1.1M156 186.1c-.2-.1-.5-.1-.7-.2M149.1 182.6c.1.1.3.2.4.3M147.8 181.4c-.4-.4-.8-.9-1.2-1.3M142.5 168.3v-.1M142.5 168.2c.1-3.7 1.3-7.3 3.6-10.4M145.6 178.7c.2.3.4.6.7.9M146.6 180.1c-.1-.2-.2-.3-.4-.5M156.7 190.2h-21M144.9 157.8h1.2M163.6 186.5c-.2 0-.3 0-.5.1M149.1 182.6c.1.1.3.2.4.3M165 186.2c-.1 0-.3.1-.4.1M175.9 127.8c.4-.4.9-.8 1.3-1.3M178.4 125.3c-.4.4-.9.8-1.3 1.2M150.4 183.6c.2.1.3.2.5.3M153.6 185.3c.2.1.3.1.5.2M156.8 186.3c.3.1.5.1.8.1M150.4 183.6c-.3-.2-.6-.4-.9-.7M155.3 185.9c-.4-.1-.8-.3-1.2-.4M151.9 184.5l-.9-.6M151.9 184.5c.2.1.3.2.5.3M158.3 186.6c.3 0 .6.1.8.1M153.6 185.3c-.4-.2-.8-.4-1.3-.6M155.3 185.9c.2.1.5.1.7.2M143.7 175c-.1-.3-.2-.5-.3-.8M147.8 181.4c-.4-.4-.8-.9-1.2-1.3M145.2 178.1c-.2-.3-.3-.6-.5-.8M144.4 176.6c-.1-.3-.3-.5-.4-.8M146.3 179.6c-.2-.3-.5-.6-.7-.9M146.1 157.8c-2.3 3.1-3.5 6.7-3.6 10.4M146.3 179.6c.1.2.2.3.4.5M142.5 168.3v-.1M142.6 170v-.4M228.4 153h-26.5l-28.5 28.5c-1.4 1.4-3 2.5-4.7 3.4M149.1 182.6c-.4-.4-.9-.7-1.3-1.1M178.4 125.3c31.6-28.4 75.8-13.3 97.8-5.8 23.9 8.2 48.3 9.1 51.6 9.1M142.5 168.3v1.3M142.8 171.7c0-.2-.1-.4-.1-.6M146.9 156.9c-.3.3-.5.6-.7.9M143.1 173.3c-.1-.2-.1-.5-.2-.7M159.8 186.7h-.6M161.7 186.7h-1.9M166.2 185.9c.9-.3 1.7-.6 2.6-1M161.7 186.7h.4M147.8 155.8c-.3.3-.7.7-1 1.1M162.1 186.7c.3 0 .7-.1 1-.1M163.6 186.5c.3-.1.7-.1 1-.2M165 186.2c.4-.1.7-.2 1.1-.3M158.3 186.6c-.3 0-.5-.1-.8-.1M144.4 176.6c.1.2.2.5.4.7M143.7 175c.1.3.2.5.3.8M145.2 178.1c.1.2.2.4.4.6M142.6 170c0 .4.1.7.1 1.1M156 186.1c.3.1.6.1.8.2M142.8 171.7c.1.3.1.6.2 1M143.1 173.3l.3.9M147.8 155.8l28-28M327.9 243.3c-38.6 0-74.1 27-127.4 11.8"></path></g></svg>