<svg class="finger_bottom" xmlns="http://www.w3.org/2000/svg" viewBox="0 0 160.05 352.23"><defs><style>.cls-3{fill:none;stroke:#231815;stroke-linecap:round;stroke-linejoin:round;stroke-width:9px;}</style></defs><title>finger_bottom</title><g id="レイヤー_2" data-name="レイヤー 2"><g id="finger-wrap"><g id="f1"><path class="cls-3" d="M86,224.63a16.23,16.23,0,0,0,32.45,0V206.25"></path><path class="cls-3" d="M118.44,180.35a16.23,16.23,0,0,0-32.45,0v23.3"></path><path class="cls-3" d="M118.44,206.25a16.23,16.23,0,0,0,32.46,0V162a16.23,16.23,0,0,0-32.46,0v18.38"></path><line class="cls-3" x1="118.44" y1="180.35" x2="118.44" y2="206.25"></line><path class="cls-3" d="M94.64,75.93c0,9.27-6.5,37.34-26.87,52.54"></path><path class="cls-3" d="M138.55,32.46a14,14,0,0,0,0-28H27.44a14,14,0,0,0,0,28Z"></path><path class="cls-3" d="M21.09,181.92V331.51a16.23,16.23,0,0,0,32.45,0V215.43"></path><path class="cls-3" d="M51.57,212.54a14,14,0,0,0,1.07,1"></path><path class="cls-3" d="M22.27,183.2c.41.43.83.87,1.26,1.3"></path><path class="cls-3" d="M21.09,181.92h0c.39.43.78.86,1.18,1.28"></path><path class="cls-3" d="M53.54,214.23q-.45-.34-.9-.72"></path><path class="cls-3" d="M81.9,204.4q.12-.42.21-.84"></path><path class="cls-3" d="M68.4,217.39l.69-.17"></path><path class="cls-3" d="M81.29,206.29c.16-.4.3-.81.43-1.22"></path><path class="cls-3" d="M66.84,217.67l.59-.08"></path><path class="cls-3" d="M65.32,217.81l.43,0"></path><path class="cls-3" d="M80.53,208c.21-.41.4-.82.58-1.25"></path><path class="cls-3" d="M70,217l.76-.27"></path><path class="cls-3" d="M73,215.66l.84-.5"></path><path class="cls-3" d="M71.52,216.39l.81-.38"></path><path class="cls-3" d="M79.7,209.44c.2-.31.38-.63.56-.95"></path><path class="cls-3" d="M78.69,210.86c.24-.3.46-.61.68-.92"></path><path class="cls-3" d="M82.07,195.73c0-.14-.06-.27-.1-.41"></path><path class="cls-3" d="M82.34,197.24l-.06-.47"></path><path class="cls-3" d="M81.67,194.23c.12.36.21.72.3,1.09"></path><path class="cls-3" d="M82.48,198.67c0-.13,0-.26,0-.39"></path><path class="cls-3" d="M81.67,194.23s0,0,0,0"></path><path class="cls-3" d="M82.26,202.78c0-.25.07-.5.11-.75"></path><path class="cls-3" d="M82.07,195.73c.08.35.15.69.21,1"></path><path class="cls-3" d="M82.46,201.2c0-.21,0-.42,0-.63"></path><path class="cls-3" d="M82.46,201.2c0,.27-.06.55-.09.83"></path><path class="cls-3" d="M82.26,202.78l-.15.78"></path><path class="cls-3" d="M80.61,191.6h0a20.51,20.51,0,0,1,1,2.58"></path><path class="cls-3" d="M82.48,198.67a17.2,17.2,0,0,1,0,1.9"></path><path class="cls-3" d="M80.61,191.6A16.16,16.16,0,0,1,86,203.65"></path><path class="cls-3" d="M82.34,197.24c0,.35.1.7.12,1"></path><path class="cls-3" d="M71.52,216.39l-.79.31"></path><path class="cls-3" d="M80.53,208l-.27.5"></path><path class="cls-3" d="M70,217l-.88.25"></path><path class="cls-3" d="M73,215.66c-.24.13-.48.24-.71.35"></path><path class="cls-3" d="M74.5,214.77c-.2.14-.41.26-.62.39"></path><path class="cls-3" d="M81.29,206.29l-.18.45"></path><path class="cls-3" d="M68.4,217.39l-1,.2"></path><path class="cls-3" d="M64.06,217.84c.42,0,.84,0,1.26,0"></path><path class="cls-3" d="M79.7,209.44l-.33.5"></path><path class="cls-3" d="M53.54,215.43v32.49a16.23,16.23,0,1,0,32.45,0V224.63"></path><path class="cls-3" d="M78.36,211.28a15.07,15.07,0,0,1-1.14,1.26"></path><path class="cls-3" d="M66.84,217.67l-1.09.12"></path><path class="cls-3" d="M81.9,204.4c-.06.22-.11.45-.18.67"></path><path class="cls-3" d="M78.36,211.28l.33-.42"></path><path class="cls-3" d="M77.22,212.54c-.42.43-.87.82-1.32,1.2"></path><path class="cls-3" d="M64.06,217.84h-.12"></path><path class="cls-3" d="M63.94,217.83a18.05,18.05,0,0,1-10.4-3.6"></path><path class="cls-3" d="M74.5,214.77c.32-.21.62-.44.92-.67"></path><path class="cls-3" d="M75.9,213.74l-.48.36"></path><line class="cls-3" x1="85.99" y1="203.65" x2="85.99" y2="224.63"></line><line class="cls-3" x1="53.54" y1="215.43" x2="53.54" y2="214.23"></line><line class="cls-3" x1="53.54" y1="214.23" x2="53.54" y2="214.23"></line><path class="cls-3" d="M82.28,196.77l.06.47"></path><path class="cls-3" d="M78.36,211.28l.33-.42"></path><path class="cls-3" d="M82,195.32c0,.14.07.27.1.41"></path><path class="cls-3" d="M23.53,184.5c-.43-.43-.85-.87-1.26-1.3"></path><path class="cls-3" d="M81.66,194.18s0,0,0,0"></path><path class="cls-3" d="M21.09,181.92c.39.43.77.86,1.18,1.28"></path><path class="cls-3" d="M79.37,209.94l.33-.5"></path><path class="cls-3" d="M81.11,206.74l.18-.45"></path><path class="cls-3" d="M82.11,203.56l.15-.78"></path><path class="cls-3" d="M79.37,209.94c-.22.31-.44.62-.68.92"></path><path class="cls-3" d="M81.72,205.07c-.13.41-.27.82-.43,1.22"></path><path class="cls-3" d="M80.26,208.49c-.18.32-.36.64-.56.95"></path><path class="cls-3" d="M80.26,208.49l.27-.5"></path><path class="cls-3" d="M82.37,202c0-.28.07-.56.09-.83"></path><path class="cls-3" d="M81.11,206.74c-.18.43-.37.84-.58,1.25"></path><path class="cls-3" d="M81.72,205.07c.07-.22.12-.45.18-.67"></path><path class="cls-3" d="M70.73,216.7,70,217"></path><path class="cls-3" d="M77.22,212.54c-.42.43-.87.82-1.32,1.2"></path><path class="cls-3" d="M73.88,215.16l-.84.5"></path><path class="cls-3" d="M72.33,216l-.81.38"></path><path class="cls-3" d="M75.42,214.1c-.3.23-.6.46-.92.67"></path><path class="cls-3" d="M53.54,214.23a18.05,18.05,0,0,0,10.4,3.6"></path><path class="cls-3" d="M75.42,214.1l.48-.36"></path><path class="cls-3" d="M64.06,217.84h-.12"></path><path class="cls-3" d="M65.75,217.79l-.43,0"></path><path class="cls-3" d="M48.76,132v26.45l28.46,28.46a18,18,0,0,1,3.39,4.71"></path><path class="cls-3" d="M78.36,211.28a15.07,15.07,0,0,1-1.14,1.26"></path><path class="cls-3" d="M21.09,181.92c-28.42-31.57-13.32-75.84-5.81-97.81,8.16-23.88,9.14-48.31,9.14-51.65"></path><path class="cls-3" d="M64.06,217.84c.42,0,.84,0,1.26,0"></path><path class="cls-3" d="M67.43,217.59l-.59.08"></path><path class="cls-3" d="M52.64,213.51c.29.25.6.49.9.72"></path><path class="cls-3" d="M69.09,217.22l-.69.17"></path><path class="cls-3" d="M82.49,200.57c0,.21,0,.42,0,.63"></path><path class="cls-3" d="M82.48,198.67a17.2,17.2,0,0,1,0,1.9"></path><path class="cls-3" d="M81.66,194.18a19.11,19.11,0,0,0-1-2.58"></path><path class="cls-3" d="M82.48,198.67c0-.13,0-.26,0-.39"></path><path class="cls-3" d="M51.57,212.54c.34.35.71.66,1.07,1"></path><path class="cls-3" d="M82.46,198.28c0-.34-.07-.69-.12-1"></path><path class="cls-3" d="M82.28,196.77c-.06-.35-.13-.69-.21-1"></path><path class="cls-3" d="M82,195.32c-.09-.37-.18-.73-.3-1.09"></path><path class="cls-3" d="M82.37,202c0,.25-.07.5-.11.75"></path><path class="cls-3" d="M72.33,216c.23-.11.47-.22.71-.35"></path><path class="cls-3" d="M70.73,216.7l.79-.31"></path><path class="cls-3" d="M73.88,215.16c.21-.13.42-.25.62-.39"></path><path class="cls-3" d="M65.75,217.79l1.09-.12"></path><path class="cls-3" d="M81.9,204.4q.12-.42.21-.84"></path><path class="cls-3" d="M67.43,217.59l1-.2"></path><path class="cls-3" d="M69.09,217.22,70,217"></path><path class="cls-3" d="M51.57,212.54s-5.22-5.21-28-28"></path><path class="cls-3" d="M139.07,32.46c0,38.62,27,74.05,11.85,127.37"></path></g></g></g></svg>