<svg id="logo" xmlns="http://www.w3.org/2000/svg" viewBox="0 0 230 44"><style>.logo-path{fill:#231815}</style><title>松竹芸能 ONLINE STORE</title><path class="logo-path" d="M27.2 24.9c0-2.6-4.3-6.2-6.6-7.1l-.2.2c1 1.1 1.7 2.2 2.4 3.5-1.9.4-2.5.4-8.1 1.1 1.7-2.2 3.8-5.7 5-8 .4-.1.9-.2.9-.7 0-.3-.2-.5-.6-.7L16.7 12c.1.4.1.7.1 1.2 0 2.2-2.2 8.1-2.8 9.5-.3 0-.9.1-1.4.1-1.2 0-1.9-.2-2.7-.5l1.3 3.5c.1.1.3.5.5.5.4 0 .6-.5.8-.7 1.7-.4 6.7-1.6 10.5-3.3.3.6.4.9 1 3 .3.8.8 1.5 1.6 1.5.7-.2 1.6-.4 1.6-1.9zM21.2 3.8c.4 4.1 2.4 9.3 6 11.7 1.6-2 2.6-2.2 3.2-2.3V13c-3.8-.9-7.7-4.7-8.2-8C24 4 24 4 24 3.6c0-.2-.2-.4-.3-.5l-1.5-1.2c-.1-.1-.3-.2-.4-.2-.2 0-.2 0-.5.3l-1 1c-.4 0-.9-.1-1.9-.1l.6 1c.8-.1 1-.1 2.2-.1z"></path><path class="logo-path" d="M7 14.5v1.4c0 3.1-.2 7.8-.3 9.3 0 .2-.1 1.4-.1 1.7 0 .4.1 1 1.1 1 1.5 0 1.5-1 1.5-1.3 0-1.8-.1-5.2-.1-7.8 0-1.7 0-2.4.1-6.6.2.1.5.4.9 1.7.5 1.5.7 2.3 1.7 2.3.8 0 1.2-.8 1.2-1.4 0-.7-.4-1.2-.6-1.4 2.4-2.2 4.3-5.5 5.4-7.6.4-.1 1-.4 1-.8 0-.3-.3-.5-.6-.7l-2.7-1.7c-.3 3.3-.4 4.5-3.4 10.4-.8-.8-1.9-1.3-2.9-1.5 0-1.2 0-2.3.1-3.5h3.5c.2 0 .4 0 .4-.3 0-.2-.1-.2-.3-.5l-1.4-1.4c-.1-.1-.4-.3-.5-.3-.2 0-.4.2-.5.4l-.9 1.5h-.4c0-.6.1-3.3.1-3.9.2-.1 1-.5 1-1 0-.2-.2-.4-.5-.5L6.2.8c.2.3.4.6.5 1.4.2 1.2.2 3.1.3 5.2-.6 0-2.6 0-4.5-.2L3 8.3c.7-.1 1.4-.2 3.2-.2h.7c-.2 2-2.8 8.8-5.5 12.6l.2.2c2.6-2.1 4-3.9 5.4-6.4zM93.5 7.1c-.2-.1-.4-.3-.5-.3-.1 0-.2.1-.4.4L91.1 9h-6.3c.8-1.4 1.8-3.5 2.6-5.3.7-.4.9-.5.9-.9 0-.1-.1-.3-.2-.4L84.4.5c.1.3.1.4.1.9 0 3.9-3.4 11.1-6.1 15l.1.1c2.9-2.1 4.8-5.1 5.8-7h3.1l.1 14.2c0 .5 0 .7-.6.7-1.2 0-2.4-.1-3.5-.4v.1c1.4.9 2.1 1.7 2.3 3.6 2.5-.2 4.5-1.1 4.5-3.9 0-.7-.1-4.2-.1-5 0-1.6-.1-7.4-.1-9.4h5.5c.2 0 .5 0 .5-.3 0-.2-.1-.3-.3-.5l-2.2-1.5z"></path><path class="logo-path" d="M77.4 9.7h3.9c.2 0 .4 0 .4-.3 0-.2-.2-.4-.3-.4l-1.8-1.4c-.3-.2-.5-.3-.6-.3-.2 0-.4.2-.5.4L77.7 9h-3.3c1.4-2.3 2.2-4.4 2.6-5.3.8-.3 1.1-.4 1.1-.8 0-.2-.2-.4-.2-.4L74.3.6c.1.8.1 1 .1 1.3 0 1.5-2.9 9.5-5.8 13.9l.2.1c2.6-2 4.1-4.3 5.3-6.2h1v4.7c0 4 0 6-.2 9.6 0 .3-.1 2.5-.1 2.6 0 1.2.8 1.3 1.2 1.3 1.7 0 1.7-1.6 1.7-2.4 0-.7-.1-4.4-.2-5.2-.1-2-.1-2.8-.1-10.6zM151.2 20.1l-.1.1c.5.4 1.2.8 3 2.7-1.7.1-8.3.7-9.7.8 1.4-1.3 4-4.5 5.5-6.6h11.9c.1 0 .4 0 .4-.3 0-.2-.2-.4-.3-.4l-2.1-1.7c-.3-.3-.4-.3-.6-.3s-.1 0-.4.4l-1.4 1.7H140c-1.4 0-2.8-.1-4.2-.2l.5 1.1c.6-.1 1.2-.2 3.2-.2h6.8c-.8 2.2-1.9 4.8-3 6.7-1.1 0-3 .1-3.2.1-.2 0-1.4 0-2.5-.2l1.2 3.3c.1.4.4.4.5.4.3 0 .5-.3.9-.9 4.3-.4 11.5-2 14.6-3 .6.7.9 1.2 1.5 2.1.7 1.1 1.4 1.7 2.1 1.7.9 0 1.5-.8 1.5-1.5-.2-.6-1.1-4.1-8.7-5.8zM140.2 5.7h4.2v1.6c0 .3-.1 1.5-.1 1.8 0 .3 0 .9.9.9 1.2 0 1.7-.7 1.7-1.2V5.7h4.4c0 .9-.1 2.4-.1 3.4 0 .6.3.9.9.9.4 0 1.7-.1 1.7-1.4 0-.4-.1-2.4-.1-2.8h7.8c.2 0 .4 0 .4-.3 0-.1-.1-.3-.3-.4l-2.2-1.7c-.4-.3-.4-.3-.6-.3-.1 0-.2.1-.4.4l-1.3 1.7h-3.4c0-.7 0-.7.1-1.8.3-.1.9-.4.9-.8 0-.3-.1-.4-.6-.6l-3.5-1c.3.7.6 1.3.6 4.2h-4.4V3.3c.6-.4.9-.6.9-.9 0-.3-.2-.4-.7-.6l-3.2-.9c.4 1.2.4 1.5.6 4h-3.6c-.3 0-2.4 0-4.2-.2l.5 1.1c.7-.1 1.3-.1 3.1-.1z"></path><path class="logo-path" d="M156.9 9.3c-.3-.2-.4-.3-.5-.3-.2 0-.3.1-.5.4l-1.1 1.4h-12c-.3 0-2.4 0-4.2-.2l.5 1.1c.7-.1 1.4-.2 3.2-.2h16.3c.2 0 .4-.1.4-.3 0-.2-.1-.3-.3-.4l-1.8-1.5zM211.1 4.4l-.1.2c.4.4 1.1 1.1 1.7 2.4-1.8.1-4 .1-5.3.1 1.4-1.4 2.5-2.4 3.5-3.9.9 0 1.4 0 1.4-.4 0-.2-.1-.4-.4-.5L208.7.6c-.2 2.8-1.7 5.9-2 6.5-1 0-2.3-.1-3.9-.6l1 3.2c.1.3.3.4.4.4.4 0 .5-.5.6-.9 2.5-.4 7.9-1.7 8.1-1.8.1.2.4 1.2.5 1.4.1.2.5 1.2 1.4 1.2.8 0 1.3-.8 1.3-1.4.1-1.5-1.9-3.7-5-4.2zM227.8 24.1c-.4-.3-.5-.6-1-3.8h-.2c-.4 2.1-.8 3.6-1.7 4.4-.5.4-3 .4-3.7.4-.8 0-1.7 0-1.9-.4-.2-.3-.2-3.6-.2-4.3 1.2-.1 4.2-.7 6.9-2.2.1 0 .4.1.6.1.4 0 .4-.3.4-.5 0-.1 0-.2-.2-.4l-2.4-2.2c-.6 1-2.6 3.4-5.3 4.6 0-.6.1-3.8.1-3.9.9-.4 1.1-.7 1.1-.9s-.3-.4-.5-.4l-3.3-1c.3 1 .4 1.4.4 3.7v6.8c0 2.5.1 3.2 4.8 3.2 2.6 0 6.7 0 6.7-2.5.1-.3 0-.4-.6-.7zM217 9.6c.1 4 .1 4.1 5.8 4.1 2.4 0 3.6 0 4.6-.5.9-.4 1.1-1.1 1.1-1.3 0-.3-.4-.6-.5-.7-.4-.4-.6-1.1-1-3.8h-.2c-.5 4.2-1.8 4.2-3.6 4.2-.3 0-3.1-.1-3.3-.1-.2-.1-.5-.2-.6-.4-.1-.2-.1-1.9-.1-2.8 1.7-.2 4.8-.8 7.3-1.8.1.1.3.1.4.1.2 0 .4-.1.4-.4 0-.2-.1-.3-.2-.4l-2.2-2.3c-1.3 2.2-4.5 3.8-5.6 4.3.1-3.4.1-3.7.1-4.2.8-.4 1.2-.6 1.2-.9 0-.3-.3-.4-.4-.4L216.7 1c.1.5.2.9.3 1.8v6.8zM214.7 11.7l-1.6-1.1c-.1-.1-.2-.1-.3-.1-.2 0-.3.1-.4.2l-.8 1h-4.1l-2.7-1.3c.2 1.4.2 4.2.2 5.9v3.5c-.1 1.8-.2 6.8-.2 7.1 0 .2 0 .9.9.9.5 0 1.7-.3 1.7-1.6 0-.8-.1-4.3-.1-5h4.6c0 .4-.1 2-.1 2.7 0 .9 0 1.1-.6 1.1s-1.8-.2-2.4-.3l-.1.2c1.4 1 1.8 2.2 2.2 3.2 1.2-.1 2.2-.8 2.3-.9 1-.8 1-1.8 1-4 0-.7-.1-3.8-.1-4.4 0-.2 0-2.1.1-5.6.3-.1.9-.5.9-.9-.1-.2-.1-.4-.4-.6zm-2.9 8.5h-4.6v-3.6h4.6v3.6zm0-4.3h-4.6v-3.6h4.6v3.6zM6 36.3c-2 0-3.5 1.5-3.5 3.5S4 43.2 6 43.2s3.5-1.5 3.5-3.5S8 36.3 6 36.3zm0 6c-1.4 0-2.4-1-2.4-2.5s1-2.5 2.4-2.5 2.4 1 2.4 2.5-1 2.5-2.4 2.5zM30.2 41l-4.8-5.1v7.2h1v-4.7l4.8 5.1v-7.1h-1zM48.5 36.4h-1v6.7h3v-1h-2zM66.1 36.4h1v6.7h-1zM88.3 41l-4.9-5.1v7.2h1v-4.7l4.9 5.1v-7.1h-1zM105.5 43.1h3.7v-1h-2.6V40h2.5v-1h-2.5v-1.6h2.6v-1h-3.7zM144.5 39.1l-.7-.3c-.6-.3-.7-.6-.7-.8 0-.4.3-.8.9-.8.3 0 .5.1.7.2.1.1.2.3.3.4l.8-.5c-.1-.3-.3-.5-.5-.7-.2-.2-.6-.4-1.3-.4-1.2 0-1.9.9-1.9 1.8 0 1 .8 1.5 1.4 1.7l.6.3c.4.2 1 .5 1 1.1 0 .7-.5 1.1-1.1 1.1-.4 0-.7-.2-.9-.4-.2-.2-.3-.5-.3-.8l-1 .2c0 .5.2.9.6 1.3.3.4.8.7 1.6.7 1.2 0 2.1-.9 2.1-2.1 0-.8-.3-1.5-1.6-2zM161.3 37.4h1.6v5.7h1v-5.7h1.5v-1h-4.1zM184.1 36.3c-2 0-3.5 1.5-3.5 3.5s1.5 3.5 3.5 3.5 3.5-1.5 3.5-3.5-1.5-3.5-3.5-3.5zm0 6c-1.4 0-2.4-1-2.4-2.5s1-2.5 2.4-2.5 2.4 1 2.4 2.5-.9 2.5-2.4 2.5zM207.3 38.4c0-.3-.1-1.1-.8-1.6-.4-.3-.9-.4-1.8-.4h-1.2v6.7h1v-2.7h.2l1.9 2.7h1.2l-2.1-2.8c1-.3 1.6-1 1.6-1.9zm-2.7 1.1v-2.1h.4c.5 0 1.4.1 1.4 1 0 1.1-1.1 1.1-1.4 1.1h-.4zM223.6 43.1h3.7v-1h-2.7V40h2.6v-1h-2.6v-1.6h2.7v-1h-3.7z"></path><path fill="none" d="M0 0h230v44H0z"></path></svg>